<?xml version="1.0" standalone="no"?>
<!DOCTYPE svg PUBLIC "-//W3C//DTD SVG 20010904//EN"
 "http://www.w3.org/TR/2001/REC-SVG-20010904/DTD/svg10.dtd">
<svg version="1.0" xmlns="http://www.w3.org/2000/svg"
 width="1000.000000pt" height="1000.000000pt" viewBox="0 0 1000.000000 1000.000000"
 preserveAspectRatio="xMidYMid meet">
<metadata>
Created by potrace 1.11, written by Peter Selinger 2001-2013
</metadata>
<g transform="translate(0.000000,1000.000000) scale(0.100000,-0.100000)"
fill="#000000" stroke="none">
<path d="M4878 9815 c-2 -1 -25 -5 -53 -8 -49 -6 -85 -12 -135 -22 -119 -25
-364 -132 -455 -198 -119 -86 -207 -164 -274 -245 -25 -29 -50 -51 -55 -48
-179 80 -269 112 -368 132 -68 13 -90 16 -162 23 -218 19 -465 -17 -646 -96
-88 -39 -245 -124 -260 -142 -3 -3 -21 -17 -40 -31 -150 -105 -307 -292 -401
-477 -72 -141 -130 -337 -143 -481 -5 -53 -8 -57 -54 -58 -48 -1 -175 -15
-183 -19 -3 -2 -19 -7 -35 -9 -59 -11 -71 -15 -147 -40 -143 -48 -316 -142
-427 -233 -89 -72 -211 -206 -278 -304 -39 -58 -135 -239 -126 -239 4 0 2 -6
-3 -12 -24 -30 -78 -227 -90 -328 -10 -84 -10 -298 0 -375 16 -119 60 -268
113 -383 19 -40 34 -76 34 -80 0 -4 -23 -23 -51 -42 -51 -34 -203 -179 -247
-235 -151 -192 -259 -437 -288 -650 -3 -27 -8 -59 -10 -70 -7 -32 -5 -250 2
-308 10 -80 50 -245 77 -317 52 -138 152 -310 236 -405 63 -70 185 -184 233
-218 26 -17 48 -35 48 -39 0 -5 -27 -68 -70 -163 -20 -42 -62 -204 -74 -285
-13 -82 -14 -340 -2 -405 80 -424 276 -729 613 -952 182 -120 442 -206 660
-217 30 -2 57 -6 60 -10 4 -3 8 -25 10 -49 2 -23 10 -77 19 -121 135 -693 778
-1174 1478 -1105 67 7 89 10 161 25 62 12 222 67 294 101 l75 35 35 -43 c132
-158 370 -329 552 -395 83 -30 196 -62 240 -68 24 -3 55 -9 69 -12 42 -9 282
-12 340 -4 121 17 146 22 229 47 47 14 95 28 106 31 38 11 193 91 261 135 112
72 206 154 297 258 l43 50 80 -37 c191 -87 382 -129 584 -128 91 1 219 12 260
24 17 5 31 9 33 9 10 -1 77 18 152 43 237 78 437 217 612 423 161 189 281 476
306 733 5 52 8 56 55 58 195 9 416 70 572 156 143 80 282 187 362 280 26 29
57 64 69 78 41 47 126 185 167 270 92 194 132 388 127 610 -4 151 -6 173 -31
280 -23 98 -42 156 -86 258 -22 51 -39 94 -37 95 91 60 241 200 305 282 152
198 247 417 282 655 10 63 9 354 -1 415 -26 160 -84 324 -167 470 -80 142
-254 338 -368 415 -28 19 -52 39 -52 43 0 4 15 40 34 80 34 71 80 207 92 270
25 131 32 207 29 332 -2 77 -6 156 -10 175 -12 72 -48 215 -56 224 -5 6 -9 17
-9 25 0 27 -84 203 -135 281 -206 321 -534 544 -908 616 -29 5 -116 15 -170
18 -55 4 -59 7 -63 43 -9 88 -16 128 -38 213 -33 132 -78 243 -136 341 -28 45
-50 84 -50 86 0 12 -124 157 -185 217 -213 211 -518 355 -810 383 -179 17
-416 -4 -530 -47 -17 -6 -30 -11 -30 -10 0 6 -147 -52 -198 -78 l-49 -25 -44
51 c-209 239 -492 402 -795 458 -70 13 -361 28 -371 19z"/>
</g>
</svg>
